<svg width="95" height="95" viewBox="0 0 95 95" fill="none" xmlns="http://www.w3.org/2000/svg">
<path d="M47.5 0C21.2637 0 0 21.2637 0 47.5C0 73.7363 21.2637 95 47.5 95C73.7363 95 95 73.7363 95 47.5C95 21.2637 73.7363 0 47.5 0ZM47.5 23.75C54.8792 23.75 60.8594 29.732 60.8594 37.1094C60.8594 44.4867 54.8848 50.4688 47.5 50.4688C40.1227 50.4688 34.1406 44.4867 34.1406 37.1094C34.1406 29.732 40.1152 23.75 47.5 23.75ZM47.5 83.125C37.679 83.125 28.7783 79.1302 22.3213 72.6806C25.3271 64.9229 32.749 59.375 41.5625 59.375H53.4375C62.2584 59.375 69.6803 64.9191 72.6787 72.6806C66.2217 79.1357 57.3154 83.125 47.5 83.125Z" fill="currentColor"/>
</svg>
